<svg width="100%" viewBox="0 0 680 680" role="img" xmlns="http://www.w3.org/2000/svg">
  <title>Soil monitor round logo</title>
  <desc>Round logo showing a solar panel node above soil with a plant, wifi signal arcing upward, on a dark green circular background</desc>
  <style>
    .sun-ray { fill: none; stroke: #f5c842; stroke-width: 3; stroke-linecap: round }
    @media (prefers-color-scheme: dark) {
      .ring { stroke: #2a4a2a }
    }
  </style>

  <circle cx="340" cy="340" r="300" fill="#1a3a1a"/>
  <circle cx="340" cy="340" r="300" fill="none" stroke="#2d6a2d" stroke-width="6" class="ring"/>

  <circle cx="340" cy="195" r="38" fill="#f5c842" stroke="#e8a800" stroke-width="2.5"/>
  <line class="sun-ray" x1="340" y1="144" x2="340" y2="134"/>
  <line class="sun-ray" x1="340" y1="246" x2="340" y2="256"/>
  <line class="sun-ray" x1="289" y1="195" x2="279" y2="195"/>
  <line class="sun-ray" x1="391" y1="195" x2="401" y2="195"/>
  <line class="sun-ray" x1="304" y1="159" x2="297" y2="152"/>
  <line class="sun-ray" x1="376" y1="231" x2="383" y2="238"/>
  <line class="sun-ray" x1="376" y1="159" x2="383" y2="152"/>
  <line class="sun-ray" x1="304" y1="231" x2="297" y2="238"/>

  <rect x="290" y="270" width="100" height="50" rx="6" fill="#d8d8d8" stroke="#aaaaaa" stroke-width="1.5"/>
  <rect x="296" y="275" width="36" height="24" rx="3" fill="#9bbfdd" stroke="#88aacc" stroke-width="0.5"/>
  <rect x="340" y="277" width="44" height="18" rx="2" fill="#2a7a2a" stroke="#1a5a1a" stroke-width="0.5"/>
  <text x="342" y="289" font-family="monospace" font-size="10px" fill="#aaffaa">a3f9</text>

  <rect x="298" y="248" width="84" height="22" rx="3" fill="#1a5f9e" stroke="#0d3d6b" stroke-width="1"/>
  <line x1="326" y1="248" x2="326" y2="270" fill="none" stroke="#2d7fbe" stroke-width="0.5"/>
  <line x1="354" y1="248" x2="354" y2="270" fill="none" stroke="#2d7fbe" stroke-width="0.5"/>
  <line x1="298" y1="257" x2="382" y2="257" fill="none" stroke="#2d7fbe" stroke-width="0.5"/>
  <line x1="298" y1="263" x2="382" y2="263" fill="none" stroke="#2d7fbe" stroke-width="0.5"/>

  <line x1="340" y1="320" x2="340" y2="355" fill="none" stroke="#555" stroke-width="2" stroke-linecap="round"/>
  <rect x="328" y="355" width="24" height="10" rx="2" fill="#2a7a2a" stroke="#1a5a1a" stroke-width="0.5"/>
  <line x1="332" y1="365" x2="332" y2="395" fill="none" stroke="#888" stroke-width="2.5" stroke-linecap="round"/>
  <line x1="348" y1="365" x2="348" y2="395" fill="none" stroke="#888" stroke-width="2.5" stroke-linecap="round"/>

  <path d="M 340 390 C 340 370 337 355 338 330" fill="none" stroke="#2d7a27" stroke-width="3.5" stroke-linecap="round"/>
  <path d="M 338 360 C 318 350 305 340 298 332" fill="none" stroke="#2d7a27" stroke-width="3" stroke-linecap="round"/>
  <path d="M 339 342 C 358 332 366 322 370 314" fill="none" stroke="#2d7a27" stroke-width="3" stroke-linecap="round"/>
  <ellipse cx="296" cy="330" rx="20" ry="10" fill="#4a9e3f" transform="rotate(-25 296 330)"/>
  <ellipse cx="372" cy="312" rx="20" ry="10" fill="#4a9e3f" transform="rotate(20 372 312)"/>
  <rect x="326" y="305" width="30" height="13" rx="6.5" fill="#5db84f"/>
  <circle cx="333" cy="311" r="4.5" fill="#7dd96e"/>
  <circle cx="347" cy="311" r="4.5" fill="#7dd96e"/>

  <rect x="90" y="390" width="500" height="18" rx="2" fill="#6B4F12"/>
  <path d="M 90 390 Q 130 375 170 390 Q 210 375 250 390 Q 290 375 330 390 Q 370 375 410 390 Q 450 375 490 390 Q 530 375 570 390 Q 600 380 590 390" fill="none" stroke="#4a9e3f" stroke-width="3.5"/>

  <path d="M 292 355 C 278 330 272 305 280 280" fill="none" stroke="#1D9E75" stroke-width="1.8" stroke-dasharray="5 3" stroke-linecap="round"/>
  <path d="M 388 355 C 402 330 408 305 400 280" fill="none" stroke="#1D9E75" stroke-width="1.8" stroke-dasharray="5 3" stroke-linecap="round"/>
  <path d="M 340 270 L 340 258" fill="none" stroke="#1D9E75" stroke-width="1.8" stroke-dasharray="5 3" stroke-linecap="round"/>

  <text x="340" y="445" text-anchor="middle" font-family="sans-serif" font-size="26px" font-weight="500" fill="#a8d8a8">soil monitor</text>
  <text x="340" y="470" text-anchor="middle" font-family="monospace" font-size="13px" fill="#5a9a5a">esp32-c3 · solar · mqtt</text>
</svg>
