<svg width="100%" viewBox="0 0 680 420" role="img" xmlns="http://www.w3.org/2000/svg">
  <title>Soil moisture monitor hero illustration</title>
  <desc>A whimsical garden scene showing solar-powered ESP32 sensor nodes monitoring plants, with data flowing wirelessly to the cloud</desc>

  <style>
    .sky { fill: #e8f4fd }
    .ground { fill: #8B6914 }
    .soil { fill: #6B4F12 }
    .grass { fill: #4a9e3f }
    .stem { fill: none; stroke: #2d7a27; stroke-width: 3; stroke-linecap: round }
    .leaf { fill: #4a9e3f }
    .pea-pod { fill: #5db84f }
    .pea { fill: #7dd96e }
    .tomato { fill: #e85d3a }
    .panel { fill: #1a5f9e; stroke: #0d3d6b; stroke-width: 1 }
    .panel-cell { fill: none; stroke: #2d7fbe; stroke-width: 0.5 }
    .enclosure { fill: #e8e8e8; stroke: #aaaaaa; stroke-width: 1 }
    .enc-window { fill: #cce8ff; stroke: #99ccee; stroke-width: 0.5 }
    .sensor-probe { fill: none; stroke: #888; stroke-width: 2; stroke-linecap: round }
    .sensor-pcb { fill: #2a7a2a; stroke: #1a5a1a; stroke-width: 0.5 }
    .wire { fill: none; stroke: #555; stroke-width: 1.5; stroke-linecap: round }
    .signal { fill: none; stroke-width: 1.5; stroke-linecap: round; stroke-dasharray: 4 3 }
    .cloud-body { fill: #ffffff; stroke: #ccddee; stroke-width: 1 }
    .lbl { font-family: monospace; font-size: 11px; fill: #445566 }
    .title-txt { font-family: sans-serif; font-size: 22px; font-weight: 500; fill: #1a3a5c }
    .sub-txt { font-family: sans-serif; font-size: 13px; fill: #4a6a8a }
    .uid { font-family: monospace; font-size: 9px; fill: #ffffff }
    .sun-ray { fill: none; stroke: #f5c842; stroke-width: 2; stroke-linecap: round }
  </style>

  <rect class="sky" x="0" y="0" width="680" height="280"/>
  <rect class="ground" x="0" y="280" width="680" height="20"/>
  <rect class="soil" x="0" y="300" width="680" height="120"/>

  <circle cx="580" cy="62" r="28" fill="#f5c842" stroke="#e8a800" stroke-width="2"/>
  <line class="sun-ray" x1="580" y1="22" x2="580" y2="14"/>
  <line class="sun-ray" x1="580" y1="102" x2="580" y2="110"/>
  <line class="sun-ray" x1="540" y1="62" x2="532" y2="62"/>
  <line class="sun-ray" x1="620" y1="62" x2="628" y2="62"/>
  <line class="sun-ray" x1="552" y1="34" x2="546" y2="28"/>
  <line class="sun-ray" x1="608" y1="90" x2="614" y2="96"/>
  <line class="sun-ray" x1="608" y1="34" x2="614" y2="28"/>
  <line class="sun-ray" x1="552" y1="90" x2="546" y2="96"/>

  <ellipse cx="120" cy="110" rx="55" ry="30" class="cloud-body"/>
  <ellipse cx="150" cy="98" rx="38" ry="25" class="cloud-body"/>
  <ellipse cx="90" cy="105" rx="30" ry="20" class="cloud-body"/>
  <text x="118" y="108" text-anchor="middle" class="lbl" font-size="9px">adafruit io</text>
  <text x="118" y="120" text-anchor="middle" class="lbl" font-size="9px">+ grafana</text>

  <path class="signal" stroke="#1D9E75" d="M 200 180 Q 160 150 130 128"/>
  <path class="signal" stroke="#1D9E75" d="M 420 175 Q 280 140 145 118"/>
  <circle cx="200" cy="180" r="3" fill="#1D9E75"/>
  <circle cx="420" cy="175" r="3" fill="#1D9E75"/>

  <g transform="translate(160, 195)">
    <rect class="enclosure" x="0" y="-30" width="52" height="38" rx="4"/>
    <rect class="enc-window" x="4" y="-26" width="18" height="14" rx="2"/>
    <rect class="sensor-pcb" x="26" y="-24" width="22" height="10" rx="1"/>
    <text class="uid" x="28" y="-16">a3f9</text>
    <rect class="panel" x="6" y="-52" width="40" height="20" rx="2"/>
    <line class="panel-cell" x1="19" y1="-52" x2="19" y2="-32"/>
    <line class="panel-cell" x1="32" y1="-52" x2="32" y2="-32"/>
    <line class="panel-cell" x1="6" y1="-45" x2="46" y2="-45"/>
    <line class="panel-cell" x1="6" y1="-39" x2="46" y2="-39"/>
    <line class="wire" x1="26" y1="8" x2="26" y2="30"/>
    <rect class="sensor-pcb" x="18" y="30" width="16" height="8" rx="1"/>
    <line class="sensor-probe" x1="22" y1="38" x2="22" y2="58"/>
    <line class="sensor-probe" x1="30" y1="38" x2="30" y2="58"/>
  </g>

  <path class="stem" d="M 260 280 C 260 250 255 230 258 200"/>
  <path class="stem" d="M 258 240 C 240 230 228 220 220 215"/>
  <path class="stem" d="M 259 220 C 275 210 282 200 285 193"/>
  <ellipse class="leaf" cx="218" cy="213" rx="16" ry="8" transform="rotate(-20 218 213)"/>
  <ellipse class="leaf" cx="287" cy="191" rx="16" ry="8" transform="rotate(15 287 191)"/>
  <rect class="pea-pod" x="248" y="195" width="28" height="12" rx="6"/>
  <circle class="pea" cx="256" cy="201" r="4"/>
  <circle class="pea" cx="268" cy="201" r="4"/>
  <text class="lbl" x="290" y="198">peas!</text>

  <path class="stem" d="M 380 280 C 380 255 378 230 375 195"/>
  <path class="stem" d="M 377 250 C 358 242 348 235 342 228"/>
  <path class="stem" d="M 376 225 C 394 216 400 208 403 200"/>
  <ellipse class="leaf" cx="340" cy="226" rx="18" ry="9" transform="rotate(-15 340 226)"/>
  <ellipse class="leaf" cx="405" cy="198" rx="18" ry="9" transform="rotate(10 405 198)"/>
  <circle class="tomato" cx="373" cy="185" r="14"/>
  <path d="M 368 173 C 370 168 376 167 378 172" fill="none" stroke="#2d7a27" stroke-width="2"/>

  <g transform="translate(390, 200)">
    <rect class="enclosure" x="0" y="-30" width="52" height="38" rx="4"/>
    <rect class="enc-window" x="4" y="-26" width="18" height="14" rx="2"/>
    <rect class="sensor-pcb" x="26" y="-24" width="22" height="10" rx="1"/>
    <text class="uid" x="28" y="-16">f72c</text>
    <rect class="panel" x="6" y="-52" width="40" height="20" rx="2"/>
    <line class="panel-cell" x1="19" y1="-52" x2="19" y2="-32"/>
    <line class="panel-cell" x1="32" y1="-52" x2="32" y2="-32"/>
    <line class="panel-cell" x1="6" y1="-45" x2="46" y2="-45"/>
    <line class="panel-cell" x1="6" y1="-39" x2="46" y2="-39"/>
    <line class="wire" x1="26" y1="8" x2="26" y2="30"/>
    <rect class="sensor-pcb" x="18" y="30" width="16" height="8" rx="1"/>
    <line class="sensor-probe" x1="22" y1="38" x2="22" y2="58"/>
    <line class="sensor-probe" x1="30" y1="38" x2="30" y2="58"/>
  </g>

  <path d="M 80 310 Q 100 295 120 310 Q 140 295 160 310 Q 180 295 200 310 Q 220 295 240 310 Q 260 295 280 310 Q 300 295 320 310 Q 340 295 360 310 Q 380 295 400 310 Q 420 295 440 310 Q 460 295 480 310 Q 500 295 520 310 Q 540 295 560 310 Q 580 295 600 310" fill="none" stroke="#4a9e3f" stroke-width="3"/>
  <rect x="0" y="320" width="680" height="8" fill="#5a3e0e" opacity="0.5"/>

  <path d="M 90 350 Q 95 330 100 310" class="wire" stroke="#7a5a2a" stroke-width="1"/>
  <path d="M 210 360 Q 218 340 225 310" class="wire" stroke="#7a5a2a" stroke-width="1"/>
  <path d="M 340 355 Q 345 335 350 310" class="wire" stroke="#7a5a2a" stroke-width="1"/>
  <path d="M 490 350 Q 495 330 500 310" class="wire" stroke="#7a5a2a" stroke-width="1"/>

  <text class="title-txt" x="340" y="370" text-anchor="middle">soil monitor</text>
  <text class="sub-txt" x="340" y="390" text-anchor="middle">solar-powered · esp32-c3 · mqtt · open source</text>
</svg>
